Results
version=1
nRows=26
nColumns=24
inDegrees=yes
endheader
time	pelvis_tilt	pelvis_list	pelvis_rotation	pelvis_tx	pelvis_ty	pelvis_tz	hip_flexion_r	hip_adduction_r	hip_rotation_r	knee_angle_r	ankle_angle_r	subtalar_angle_r	mtp_angle_r	hip_flexion_l	hip_adduction_l	hip_rotation_l	knee_angle_l	ankle_angle_l	subtalar_angle_l	mtp_angle_l	lumbar_extension	lumbar_bending	lumbar_rotation
      1.74150000	      0.39970847	      5.71568048	     -2.28890430	      1.43923838	      1.01935451	      0.29109786	     14.42634191	     -5.91959462	      0.46292519	    -62.53552506	      1.15855643	    -14.71165761	      6.68346716	      4.55746631	     10.91393204	     -0.42186938	     -7.61721318	     -1.56415966	    -14.67658114	      7.17307352	     -1.94255403	     -6.40978865	      5.97655655
      1.74566667	      0.37424016	      5.60564353	     -1.97068833	      1.44396172	      1.01983259	      0.29050398	     14.89183275	     -5.79417154	      0.23480756	    -62.04853368	      1.25232181	    -14.77723917	      6.61661774	      4.12966605	     10.84238654	     -0.06864416	     -7.37969906	     -1.42473207	    -14.62188937	      7.15300711	     -1.96461279	     -6.27283336	      5.66825708
      1.74983333	      0.33413822	      5.51741858	     -1.65627892	      1.44865738	      1.02022878	      0.28993758	     15.37850575	     -5.69655645	      0.01528414	    -61.56395128	      1.43270337	    -14.84006966	      6.58729773	      3.72766800	     10.78336840	      0.21738657	     -7.14465606	     -1.36190709	    -14.47769736	      7.14671184	     -1.96514671	     -6.17043831	      5.55891901
      1.75400000	      0.32219450	      5.42093490	     -1.35477908	      1.45335629	      1.02064820	      0.28938780	     15.82484382	     -5.59401546	     -0.19572938	    -61.03930475	      1.54000829	    -14.91259073	      6.48286359	      3.28835629	     10.71624289	      0.55953971	     -6.89017135	     -1.27009071	    -14.44758498	      7.11482084	     -1.99523497	     -6.05993066	      5.15386462
      1.75816667	      0.29479276	      5.33034922	     -1.05657364	      1.45798899	      1.02100600	      0.28886178	     16.28660302	     -5.49974813	     -0.39722661	    -60.49933891	      1.67312370	    -14.94086403	      6.43008165	      2.88693666	     10.64629608	      0.84506086	     -6.67003076	     -1.14961453	    -14.34056439	      7.10306818	     -2.00897505	     -5.96415652	      5.02356961
      1.76233333	      0.27422798	      5.24680414	     -0.76117321	      1.46268376	      1.02134941	      0.28833597	     16.73135895	     -5.42192973	     -0.60221233	    -59.93787930	      1.76711196	    -15.00387709	      6.34041740	      2.46080625	     10.58215525	      1.15794765	     -6.42108511	     -1.05615316	    -14.27175340	      7.08144932	     -2.03440118	     -5.84904797	      4.73174535
      1.76650000	      0.23349508	      5.16924388	     -0.47093901	      1.46731133	      1.02161373	      0.28783724	     17.19845591	     -5.35352361	     -0.79918864	    -59.36423534	      1.90689538	    -15.03200213	      6.31213156	      2.08177444	     10.51625978	      1.42154134	     -6.20824362	     -0.96995223	    -14.13608794	      7.07699616	     -2.03837065	     -5.75620942	      4.66681903
      1.77066667	      0.23612512	      5.09225716	     -0.18651597	      1.47194583	      1.02193172	      0.28735992	     17.60419953	     -5.28654586	     -0.98531608	    -58.75121036	      1.99259691	    -15.05696800	      6.22401654	      1.64147629	     10.44932908	      1.72953453	     -5.96669914	     -0.85627829	    -14.09770662	      7.05698285	     -2.08250429	     -5.67506919	      4.32533685
      1.77483333	      0.19403601	      5.00591701	      0.09825578	      1.47661484	      1.02216047	      0.28690975	     18.04811242	     -5.20893901	     -1.16582977	    -58.11511817	      2.10967596	    -15.06900702	      6.18373950	      1.26034713	     10.36321119	      1.98526337	     -5.74973284	     -0.77275939	    -13.97885399	      7.04935903	     -2.07152164	     -5.59016138	      4.22441526
      1.77900000	      0.18215165	      4.93374011	      0.36767246	      1.48124145	      1.02239069	      0.28646069	     18.45586397	     -5.15357337	     -1.33574732	    -57.46270124	      2.18139863	    -15.08612716	      6.10126434	      0.84945417	     10.29358542	      2.28405590	     -5.53347057	     -0.65584658	    -13.93284873	      7.03086499	     -2.10712395	     -5.49966013	      3.93967313
      1.78316667	      0.15004338	      4.88319140	      0.62277712	      1.48587848	      1.02253802	      0.28607029	     18.88929946	     -5.11809543	     -1.48197016	    -56.81149138	      2.29982138	    -15.06916257	      6.07404297	      0.45864388	     10.23731541	      2.51043601	     -5.29975197	     -0.58656887	    -13.80281901	      7.02777101	     -2.10808294	     -5.44388477	      3.87148530
      1.78733333	      0.11902971	      4.81497190	      0.87550435	      1.49050025	      1.02268674	      0.28568183	     19.30352391	     -5.06384427	     -1.62145258	    -56.11787603	      2.39248766	    -15.04354697	      6.05069478	      0.06834378	     10.15919586	      2.74700128	     -5.06721473	     -0.48543405	    -13.68846295	      7.02603768	     -2.11728735	     -5.36448951	      3.76924905
      1.79150000	      0.13361497	      4.74630756	      1.14259110	      1.49513223	      1.02288050	      0.28529993	     19.64827040	     -5.01741325	     -1.77905835	    -55.38581250	      2.44709632	    -15.00253629	      5.98205576	     -0.36833457	     10.07682940	      3.03812009	     -4.85264131	     -0.37216151	    -13.67731886	      7.01354090	     -2.17232320	     -5.30205920	      3.41554644
      1.79566667	      0.10879208	      4.69260825	      1.40040909	      1.49971255	      1.02297155	      0.28494700	     20.03970181	     -4.98388411	     -1.91128927	    -54.65801692	      2.54417322	    -14.94407005	      5.94903173	     -0.74608873	     10.00453771	      3.27237643	     -4.65519698	     -0.29367796	    -13.57563620	      7.01038739	     -2.19139100	     -5.25793667	      3.32284175
      1.79983333	      0.08066262	      4.64464298	      1.64030810	      1.50432548	      1.02302942	      0.28462603	     20.42726014	     -4.95583548	     -2.02762275	    -53.90823916	      2.61529715	    -14.87024756	      5.91951907	     -1.12735012	      9.93548901	      3.50620980	     -4.44571941	     -0.19573335	    -13.48872437	      7.00732274	     -2.20561114	     -5.21004146	      3.18959833
      1.80400000	      0.07517063	      4.60079492	      1.87043797	      1.50892908	      1.02309517	      0.28432576	     20.78091369	     -4.93108514	     -2.13063650	    -53.13197335	      2.67370739	    -14.78171132	      5.88725114	     -1.53773381	      9.86621158	      3.73630340	     -4.21965060	     -0.10116930	    -13.41161061	      7.00402336	     -2.23967278	     -5.17042311	      3.02279841
      1.80816667	      0.05146657	      4.55633311	      2.08918556	      1.51355995	      1.02309976	      0.28404693	     21.14557309	     -4.90409579	     -2.21846216	    -52.34163158	      2.73451654	    -14.68170851	      5.86420550	     -1.93097294	      9.79338199	      3.95822282	     -3.99314647	     -0.01097823	    -13.32756405	      7.00296289	     -2.25203278	     -5.12769290	      2.90299980
      1.81233333	      0.05229340	      4.53305137	      2.31038926	      1.51814885	      1.02309075	      0.28377143	     21.48188675	     -4.90860137	     -2.31298499	    -51.54465729	      2.79353851	    -14.55387725	      5.82484757	     -2.35060505	      9.73949395	      4.19915451	     -3.76173127	      0.09356928	    -13.29459736	      6.99948438	     -2.30244679	     -5.10888109	      2.65348127
      1.81650000	      0.01646325	      4.50187182	      2.53600807	      1.52273940	      1.02302457	      0.28351888	     21.84167783	     -4.90066540	     -2.39576093	    -50.71605797	      2.84247384	    -14.43062881	      5.81064026	     -2.71162862	      9.67271703	      4.41241893	     -3.56738591	      0.18610009	    -13.18537564	      6.99936010	     -2.30481741	     -5.08796513	      2.58374531
      1.82066667	     -0.00629371	      4.46757857	      2.75623272	      1.52733929	      1.02294634	      0.28327214	     22.17662102	     -4.89237391	     -2.47788799	    -49.86271367	      2.86976794	    -14.28828889	      5.80051094	     -3.09492734	      9.59877588	      4.61857694	     -3.35459810	      0.29526913	    -13.08836762	      7.00066310	     -2.32318457	     -5.05940100	      2.47724104
      1.82483333	     -0.00208551	      4.45262104	      2.95688734	      1.53195648	      1.02286844	      0.28304647	     22.47580461	     -4.90371172	     -2.54380491	    -49.00186352	      2.90568167	    -14.11024521	      5.78727203	     -3.51451114	      9.54337366	      4.83093925	     -3.13168604	      0.41636322	    -13.02922537	      7.00062676	     -2.37520921	     -5.05323254	      2.27242545
      1.82900000	     -0.03108943	      4.43474676	      3.15976078	      1.53652932	      1.02271314	      0.28283869	     22.80429106	     -4.90995663	     -2.59811047	    -48.11748632	      2.92423983	    -13.94893113	      5.78567111	     -3.88291326	      9.48185613	      5.01671197	     -2.92808988	      0.51292287	    -12.91583024	      7.00229358	     -2.38886384	     -5.04474832	      2.20509233
      1.83316667	     -0.06950811	      4.40926246	      3.36569038	      1.54114499	      1.02253389	      0.28262948	     23.12222589	     -4.91399996	     -2.66293732	    -47.20280441	      2.92718056	    -13.77571573	      5.78846156	     -4.24052747	      9.41037704	      5.20568620	     -2.73254575	      0.63698006	    -12.81300130	      7.00540055	     -2.38733361	     -5.02999431	      2.11473542
      1.83733333	     -0.08233879	      4.40532972	      3.56210329	      1.54570793	      1.02234244	      0.28243377	     23.41438533	     -4.94135178	     -2.71769116	    -46.28168368	      2.93612389	    -13.57421482	      5.79795598	     -4.62601220	      9.35863899	      5.38864195	     -2.53398644	      0.76192197	    -12.70651976	      7.00882826	     -2.42291750	     -5.03610952	      1.99257126
      1.84150000	     -0.10822324	      4.39744133	      3.76485396	      1.55032009	      1.02211111	      0.28224046	     23.70303298	     -4.96780098	     -2.77469699	    -45.34131325	      2.93194571	    -13.36629554	      5.81280772	     -4.99929617	      9.29922177	      5.56495169	     -2.33444207	      0.89006575	    -12.59462925	      7.01213722	     -2.43875372	     -5.04100218	      1.87393981
      1.84566667	     -0.12627796	      4.39611488	      3.95716811	      1.55490232	      1.02185889	      0.28206977	     23.97758534	     -4.99875177	     -2.82312329	    -44.38313663	      2.92536740	    -13.15110459	      5.83081442	     -5.37665496	      9.24492238	      5.73860889	     -2.14038147	      1.02257383	    -12.47767110	      7.01628005	     -2.47375015	     -5.05216593	      1.77027398
